<svg xmlns="http://www.w3.org/2000/svg" xmlns:xlink="http://www.w3.org/1999/xlink" width="89" height="88"><defs><path id="b" d="M20.9 49.7C9.9 51.7 0 43.8 0 32.9V17C0 6.1 9.8-1.7 20.9.3 37 3.2 50 15.5 50 25S37 46.8 20.9 49.7z"/><filter id="a" width="220%" height="220%" x="-60%" y="-60%" filterUnits="objectBoundingBox"><feOffset in="SourceAlpha" result="shadowOffsetOuter1"/><feGaussianBlur in="shadowOffsetOuter1" result="shadowBlurOuter1" stdDeviation="10"/><feComposite in="shadowBlurOuter1" in2="SourceAlpha" operator="out" result="shadowBlurOuter1"/><feColorMatrix in="shadowBlurOuter1" values="0 0 0 0 0 0 0 0 0 0 0 0 0 0 0 0 0 0 0.2 0"/></filter></defs><g fill="none" fill-rule="evenodd"><g transform="translate(20 19)"><use fill="#000" filter="url(#a)" xlink:href="#b"/><use fill="#3598FE" xlink:href="#b"/></g><path stroke="#FFF" stroke-linecap="round" stroke-linejoin="round" stroke-width="2" d="M50.8 40.8l1.2.6c1.8 1 1.8 3.7 0 4.7l-12.5 7.2c-1.8 1-4-.3-4-2.4V36.6c0-2 2.2-3.4 4-2.3l7 4"/></g></svg>